<?xml version="1.0" encoding="UTF-8"?>
<svg xmlns="http://www.w3.org/2000/svg" viewBox="0 0 576 576">
  <defs>
    <style>
      .cls-1 {
        font-family: Times-Roman, Times;
        font-size: 188.73px;
      }

      .cls-1, .cls-2, .cls-3 {
        fill: #231f20;
      }

      .cls-4 {
        fill: #fff;
        stroke: #231f20;
      }

      .cls-4, .cls-2 {
        stroke-miterlimit: 10;
      }

      .cls-2 {
        stroke: #fff;
      }

      .cls-3 {
        stroke-width: 0px;
      }
    </style>
  </defs>
  <g id="Layer_1" data-name="Layer 1">
    <circle class="cls-2" cx="288" cy="286.38" r="271.07"/>
    <circle class="cls-4" cx="288" cy="286.38" r="243.45"/>
    <text class="cls-1" transform="translate(296.33 343.88)"><tspan x="0" y="0">R</tspan></text>
    <text class="cls-1" transform="translate(279.67 343.88) rotate(-180) scale(1 -1)"><tspan x="0" y="0">R</tspan></text>
  </g>
  <g id="Layer_3" data-name="Layer 3">
    <path class="cls-3" d="m201.8,81.82c-.98.59-1.98,1.13-3.02,1.54-11.41,4.47-28.34,12.4-46.52,26.07-18.58,13.97-31.98,27.4-39.52,37.13-.59.76-1.27,1.44-1.97,2.12-4.15,4-4.58,10.59-1.84,14.22l17.04,22.59c2.71,3.59,8.41,3.94,13.26,1.01.8-.48,1.49-1.14,2.05-1.88,7.78-10.27,21.15-25.75,41.36-40.43,17.23-12.52,33.22-19.94,44.37-24.26.87-.34,1.71-.82,2.41-1.47,4.15-3.86,5.38-9.44,2.67-13.03l-17.04-22.59c-2.71-3.59-8.41-3.94-13.26-1.01Z"/>
    <path class="cls-3" d="m109.86,411.12c-.52-1.02-1.08-2.01-1.75-2.9-7.34-9.81-17.55-25.47-25.8-46.67-8.42-21.66-12.74-40.14-14.01-52.38-.1-.95-.32-1.89-.56-2.84-1.42-5.58,1.68-11.41,5.93-13.05l26.39-10.22c4.19-1.62,9.22,1.09,11.8,6.13.43.83.67,1.76.75,2.67,1.19,12.83,4.4,33.03,13.84,56.16,8.05,19.72,17.72,34.45,24.92,44.01.56.75,1.03,1.6,1.28,2.52,1.49,5.47-.41,10.86-4.6,12.48l-26.39,10.22c-4.19,1.62-9.22-1.09-11.8-6.13Z"/>
    <path class="cls-3" d="m466.16,417.33c.53-1.01,1.1-1.99,1.78-2.88,7.44-9.73,17.82-25.28,26.29-46.39,8.65-21.57,13.16-40,14.57-52.23.11-.95.34-1.89.59-2.83,1.48-5.57-1.56-11.43-5.79-13.12l-26.28-10.5c-4.17-1.67-9.23.99-11.87,6.01-.44.83-.68,1.75-.78,2.66-1.33,12.81-4.76,32.98-14.44,56-8.26,19.63-18.08,34.26-25.39,43.74-.57.74-1.04,1.59-1.3,2.51-1.55,5.45.29,10.86,4.46,12.53l26.28,10.5c4.17,1.67,9.23-.99,11.87-6Z"/>
    <path class="cls-3" d="m231.51,505c1.14.12,2.26.29,3.34.59,11.8,3.3,30.09,7.17,52.84,7.21,23.24.04,42.03-2.61,53.9-5.84.92-.25,1.88-.39,2.85-.5,5.72-.69,10.03-5.69,10.03-10.24v-28.3c0-4.49-4.34-8.21-9.98-8.79-.93-.1-1.88.02-2.76.27-12.39,3.52-32.39,7.82-57.36,7.37-21.3-.38-38.52-4.09-50.04-7.35-.9-.25-1.86-.38-2.81-.28-5.64.59-9.98,4.3-9.98,8.79v28.3c0,4.49,4.34,8.21,9.97,8.79Z"/>
    <path class="cls-3" d="m469.62,164.19c-.74-.87-1.44-1.77-2.02-2.73-6.27-10.53-16.86-25.94-33.31-41.64-16.81-16.05-32.25-27.08-43.08-32.93-.84-.45-1.63-1.02-2.41-1.6-4.62-3.44-11.19-2.79-14.33.5l-19.51,20.5c-3.1,3.26-2.51,8.94,1.17,13.25.61.71,1.37,1.29,2.18,1.71,11.4,6,28.86,16.67,46.64,34.21,15.16,14.96,25.09,29.51,31.18,39.82.48.8,1.09,1.56,1.84,2.14,4.49,3.46,10.19,3.76,13.29.51l19.51-20.5c3.1-3.25,2.51-8.94-1.17-13.25Z"/>
  </g>
</svg>